PathFileType	4	(X/Y/Z)	D:\TRACE\v60_Jaco2_6-2-23\JustBodyDRS_Motion2_3-platform.trc
DataRate	CameraRate	NumFrames	NumMarkers	Units	OrigDataRate	OrigDataStartFrame	OrigNumFrames
100.00	100.00	      30	5	mm	100.00	5980	      6834
Frame#	Time	Left_Front			Right_Front			Left_Aft			Right_Aft			Post			
		X1	Y1	Z1	X2	Y2	Z2	X3	Y3	Z3	X4	Y4	Z4	X5	Y5	Z5	

5980	59.790	-810.40845	-38.33134	-648.33801	759.83319	-36.56156	-653.73871	-718.44611	39.10942	484.07941	723.94189	39.97402	493.39752	-24.79524	1235.90222	-1062.53418	
5981	59.800	-809.32520	-36.95433	-648.23541	760.69922	-35.31919	-653.55444	-717.29626	38.41038	484.46796	724.82507	38.99670	493.67267	-23.53052	1237.57642	-1060.18555	
5982	59.810	-807.96637	-35.81076	-648.12067	761.94226	-34.33167	-653.40546	-716.09351	37.61907	484.79016	725.92120	38.39848	494.00580	-22.06423	1239.33130	-1057.77979	
5983	59.820	-806.95050	-34.94432	-647.93842	762.88489	-33.21935	-653.25165	-715.25391	37.04590	485.04160	727.08148	37.65183	494.19730	-21.43415	1241.24036	-1055.24890	
5984	59.830	-805.81714	-33.93386	-647.67993	763.97388	-32.31480	-653.17804	-713.96796	36.23309	485.31754	728.07758	36.78789	494.43942	-20.32364	1243.04163	-1052.59424	
5985	59.840	-804.92535	-32.47847	-647.40411	765.26422	-31.00590	-652.69678	-712.98511	35.55173	485.74304	729.55835	36.21960	494.83069	-19.35018	1244.85059	-1050.01440	
5986	59.850	-803.70239	-31.48531	-647.22217	766.04657	-29.71968	-652.58820	-711.89807	34.83245	485.96622	730.10718	35.20236	495.06744	-18.51517	1246.58569	-1047.33850	
5987	59.860	-802.45801	-30.30712	-647.13367	767.40112	-28.72673	-652.46527	-710.61420	33.98659	486.31342	731.77222	34.41296	495.53305	-17.11734	1248.65686	-1044.66980	
5988	59.870	-801.39807	-28.90969	-647.01587	768.35535	-27.32358	-652.27386	-709.69678	33.10685	486.50336	732.62372	33.61435	495.86780	-15.69025	1250.79712	-1042.45178	
5989	59.880	-800.25208	-27.45881	-646.81158	769.41132	-26.28064	-652.12244	-708.54742	32.07573	486.81165	733.93976	32.83961	496.22232	-14.45655	1252.53381	-1039.99268	
5990	59.890	-799.16711	-26.58202	-646.43445	770.47729	-24.83779	-651.99536	-707.28876	31.07377	487.51065	734.89636	31.75754	496.45615	-13.86227	1254.77161	-1037.33557	
5991	59.900	-797.84595	-25.16783	-646.26215	771.85748	-23.84387	-651.58923	-706.15430	30.12749	487.89975	736.22223	30.83655	496.70367	-12.60658	1256.61206	-1034.75635	
5992	59.910	-796.84119	-23.64442	-645.82208	773.02911	-22.06458	-651.08850	-704.93866	29.47816	488.28180	737.20514	29.87203	497.09268	-11.26174	1258.73511	-1032.22705	
5993	59.920	-795.84290	-22.64939	-645.66022	774.54474	-20.79445	-650.69305	-703.83026	28.64332	488.51276	738.20343	29.03283	497.56967	-10.09301	1260.87512	-1029.28369	
5994	59.930	-794.60394	-20.89132	-645.50543	775.55664	-19.44248	-650.63782	-702.64941	27.76241	488.82211	739.59558	28.11380	498.09158	-9.20424	1263.24939	-1026.63916	
5995	59.940	-793.40100	-19.94968	-645.23425	776.40979	-18.10864	-650.38049	-701.64087	26.85449	489.30591	740.37329	26.95040	498.23798	-8.14973	1265.09558	-1023.77716	
5996	59.950	-792.17175	-18.69546	-645.00421	777.81293	-16.73237	-649.92395	-700.61285	25.88934	489.65671	741.84717	26.08566	498.61606	-6.74355	1267.21350	-1020.62183	
5997	59.960	-791.20886	-17.04234	-644.56824	778.79572	-15.20970	-649.82513	-699.32202	24.95472	489.94690	742.56201	25.03060	498.88647	-5.20014	1269.40405	-1017.90710	
5998	59.970	-789.74554	-15.84562	-644.57343	780.02100	-13.86772	-649.54529	-698.32092	24.10930	490.17557	744.21802	24.27242	499.25143	-4.31002	1271.59387	-1014.55054	
5999	59.980	-788.39832	-14.77248	-644.24414	781.26501	-12.41127	-649.10059	-696.95367	23.11018	490.62527	745.05402	23.23200	499.64984	-3.20040	1273.76648	-1011.56085	
6000	59.990	-787.68927	-12.45865	-643.73541	782.36151	-10.97812	-648.96307	-695.91394	22.13898	490.95584	746.16309	22.18125	500.06384	-2.20466	1276.01733	-1008.34412	
6001	60.000	-786.77148	-11.13068	-643.55603	783.35193	-9.61091	-648.76147	-694.77191	21.03928	491.47403	747.44995	21.15765	500.39868	-1.05403	1278.24219	-1005.11444	
6002	60.010	-785.68927	-9.49053	-643.21515	784.45282	-8.11781	-648.50195	-693.47253	19.91407	491.80341	748.25153	19.88509	500.71506	0.22456	1280.40674	-1001.91870	
6003	60.020	-784.32764	-7.92311	-642.95062	785.62842	-6.59470	-647.96765	-692.65045	19.08615	492.19781	749.82813	18.96322	501.05896	1.44860	1282.80762	-998.56183	
6004	60.030	-783.28552	-6.50112	-642.61572	786.74548	-5.07076	-647.89606	-691.09229	17.39085	492.82004	750.51404	17.84252	501.35385	2.38232	1284.91943	-995.44073	
6005	60.040	-782.33124	-4.74041	-642.37378	787.82922	-3.48989	-647.38123	-690.08252	16.56805	493.26071	752.14655	17.02332	501.93503	3.33013	1287.61951	-992.21240	
6006	60.050	-781.42712	-3.41903	-641.89410	788.97876	-2.13901	-647.05371	-688.73755	15.12975	493.81223	752.86316	15.68160	502.31915	4.62082	1289.93713	-988.93787	
6007	60.060	-780.03857	-2.26294	-641.65033	790.38550	-0.25013	-646.47028	-687.95453	14.60507	493.32718	754.10217	14.64060	502.65845	5.88527	1292.18823	-985.66541	
6008	60.070	-778.92175	-0.19088	-641.32202	791.09631	1.30323	-646.45099	-687.06384	13.68034	493.77930	755.00116	13.43772	502.97043	7.06851	1294.41797	-982.52893	
6009	60.080	-777.87659	1.29355	-640.84479	792.11816	2.53202	-646.20203	-685.91943	12.67546	494.08569	755.95630	12.30350	503.21585	8.37785	1296.56494	-979.02167	
